M48
; DRILL file {KiCad 9.0.7} date 2026-04-21T18:13:47+0500
; FORMAT={-:-/ absolute / metric / decimal}
; #@! TF.CreationDate,2026-04-21T18:13:47+05:00
; #@! TF.GenerationSoftware,Kicad,Pcbnew,9.0.7
; #@! TF.FileFunction,MixedPlating,1,2
FMAT,2
METRIC
; #@! TA.AperFunction,Plated,PTH,ViaDrill
T1C0.300
; #@! TA.AperFunction,Plated,PTH,ComponentDrill
T2C0.800
; #@! TA.AperFunction,Plated,PTH,ComponentDrill
T3C0.900
; #@! TA.AperFunction,Plated,PTH,ComponentDrill
T4C1.200
; #@! TA.AperFunction,Plated,PTH,ComponentDrill
T5C1.300
%
G90
G05
T1
X104.79Y-64.8
X107.36Y-57.27
X108.93Y-72.51
X111.12Y-102.34
X117.73Y-79.02
X118.32Y-76.93
X119.3Y-101.35
X119.61Y-97.08
X120.09Y-108.45
X121.7Y-70.29
X122.06Y-65.94
X122.27Y-81.34
X123.33Y-99.9
X128.77Y-103.67
X130.06Y-71.7
X132.42Y-49.22
X132.91Y-101.35
X135.65Y-88.11
X136.96Y-116.25
X136.99Y-64.62
X137.11Y-95.38
X137.42Y-88.99
T2
X96.0Y-58.763
X96.0Y-66.363
X108.38Y-53.0
X108.38Y-60.5
X108.38Y-68.0
X108.38Y-75.5
X108.38Y-83.0
X108.38Y-90.5
X108.38Y-98.0
X108.38Y-105.5
X108.38Y-113.0
X108.38Y-120.5
X108.38Y-128.0
X116.0Y-53.0
X116.0Y-60.5
X116.0Y-68.0
X116.0Y-75.5
X116.0Y-83.0
X116.0Y-90.5
X116.0Y-98.0
X116.0Y-105.5
X116.0Y-113.0
X116.0Y-120.5
X116.0Y-128.0
X125.38Y-53.08
X125.38Y-55.62
X125.38Y-58.16
X125.38Y-60.7
X125.38Y-63.24
X125.38Y-65.78
X125.38Y-68.32
X125.38Y-81.38
X125.38Y-83.92
X125.38Y-86.46
X125.38Y-89.0
X125.38Y-91.54
X125.38Y-94.08
X125.38Y-96.62
X125.38Y-109.68
X125.38Y-112.22
X125.38Y-114.76
X125.38Y-117.3
X125.38Y-119.84
X125.38Y-122.38
X125.38Y-124.92
X133.0Y-53.08
X133.0Y-55.62
X133.0Y-58.16
X133.0Y-60.7
X133.0Y-63.24
X133.0Y-65.78
X133.0Y-68.32
X133.0Y-81.38
X133.0Y-83.92
X133.0Y-86.46
X133.0Y-89.0
X133.0Y-91.54
X133.0Y-94.08
X133.0Y-96.62
X133.0Y-109.68
X133.0Y-112.22
X133.0Y-114.76
X133.0Y-117.3
X133.0Y-119.84
X133.0Y-122.38
X133.0Y-124.92
X142.91Y-43.9
X142.91Y-53.9
X142.91Y-63.9
X142.91Y-73.9
X142.91Y-83.9
X142.91Y-93.9
X142.91Y-103.9
X142.91Y-113.9
X142.91Y-123.9
X142.91Y-133.9
X150.53Y-43.9
X150.53Y-53.9
X150.53Y-63.9
X150.53Y-73.9
X150.53Y-83.9
X150.53Y-93.9
X150.53Y-103.9
X150.53Y-113.9
X150.53Y-123.9
X150.53Y-133.9
T3
X155.5Y-44.0
X155.5Y-54.0
X155.5Y-64.0
X155.5Y-74.0
X155.5Y-84.0
X155.5Y-94.0
X155.5Y-104.0
X155.5Y-114.0
X155.5Y-124.0
X155.5Y-134.0
X158.04Y-44.0
X158.04Y-54.0
X158.04Y-64.0
X158.04Y-74.0
X158.04Y-84.0
X158.04Y-94.0
X158.04Y-104.0
X158.04Y-114.0
X158.04Y-124.0
X158.04Y-134.0
T4
X96.0Y-104.863
X96.0Y-109.863
X96.0Y-114.863
T5
X96.0Y-81.793
X96.0Y-86.873
M30
